<svg width="1016" height="947" viewBox="0 0 1016 947" fill="none" xmlns="http://www.w3.org/2000/svg">
<g id="          ">
<g id="Legs">
<path id="Base" fill-rule="evenodd" clip-rule="evenodd" d="M595.5 937.915C593.015 937.915 591 939.929 591 942.415C591 944.9 593.015 946.915 595.5 946.915H756.5C758.985 946.915 761 944.9 761 942.415C761 939.929 758.985 937.915 756.5 937.915H595.5ZM352.5 937.915C350.015 937.915 348 939.929 348 942.415C348 944.9 350.015 946.915 352.5 946.915H521.5C523.985 946.915 526 944.9 526 942.415C526 939.929 523.985 937.915 521.5 937.915H352.5Z" fill="#A339FF"/>
<path id="Shoes" fill-rule="evenodd" clip-rule="evenodd" d="M594.864 874.635H670.267C670.267 874.635 682.826 884.186 686.997 888.214C691.168 892.242 695.634 895.964 700.491 899.18C707.311 903.653 712.228 905.49 718.654 907.892C723.285 909.622 728.699 911.646 736.175 915.16C741.014 917.376 745.659 919.895 750.209 922.716C754.759 925.537 756.315 928.71 757.598 933.489C757.737 934.004 757.791 934.522 757.843 935.012C757.871 935.278 757.899 935.537 757.938 935.783C757.956 936.822 757.88 937.587 757.735 938.171C757.343 938.06 756.928 938 756.5 938H595.5C595.183 938 594.874 938.033 594.575 938.095L594.864 874.635ZM358.998 874.635H434.267C434.267 874.635 446.826 884.186 450.997 888.214C455.168 892.242 459.634 895.964 464.491 899.18C471.311 903.653 476.228 905.49 482.654 907.892C487.285 909.622 492.699 911.646 500.175 915.16C505.014 917.376 509.659 919.895 514.209 922.716C518.759 925.537 520.315 928.71 521.598 933.489C521.737 934.004 521.791 934.522 521.843 935.012L521.843 935.012C521.871 935.279 521.899 935.537 521.938 935.783C521.955 936.728 521.893 937.446 521.773 938.008C521.682 938.003 521.592 938 521.5 938H352.5C352.03 938 351.577 938.072 351.151 938.206L358.998 874.635Z" fill="#474961"/>
<path id="Legs_2" fill-rule="evenodd" clip-rule="evenodd" d="M327.046 797.386C325.569 820.672 344.196 840.294 367.528 840.013L429.465 839.268C449.697 839.025 466.544 823.85 468.691 803.73C474.62 748.18 486.245 637.644 494.064 552.908C523.424 586.413 554.842 621.204 554.842 621.204L565.388 799.89C566.635 821.03 584.142 837.534 605.318 837.534H665.521C686.693 837.534 704.146 821.053 704.79 799.89C706.595 740.573 707.241 626.178 688.667 568.463C662.91 488.427 523.81 373.497 503.229 362.472C499.517 360.484 494.143 358.894 487.805 357.741C473.151 353.428 385.904 330.397 375.276 389.883C363.669 454.853 344.88 569.836 344.88 569.836C344.88 569.836 334.351 628.141 334.719 648.139C335.065 666.955 330.264 746.654 327.046 797.386Z" fill="#474BFF"/>
<path id="Legs Shadow" opacity="0.176986" fill-rule="evenodd" clip-rule="evenodd" d="M493.867 552.371C523.392 586.079 555.226 621.33 555.226 621.33L565.771 800.016C567.018 821.155 584.525 837.659 605.701 837.659H665.904C687.077 837.659 704.529 821.178 705.173 800.016C706.978 740.698 707.624 626.303 689.051 568.588C663.294 488.553 524.193 373.622 503.612 362.598C499.799 360.555 494.232 358.933 487.669 357.773C488.95 358.151 489.644 358.377 489.644 358.377C489.644 358.377 504.383 382.761 501.54 454.323C500.783 473.378 497.815 509.55 493.867 552.371Z" fill="#444444"/>
</g>
<g id="Body">
<path id="T-shirt" fill-rule="evenodd" clip-rule="evenodd" d="M445.202 202.479C415.78 182.078 369.866 200.054 347.984 210.778C341.165 214.12 339.394 222.681 343.852 228.829L390.9 293.71C391.521 294.568 392.343 295.236 393.287 295.653C387.274 324.366 381.834 354.58 384.44 359.255C389.593 368.497 409.491 374.412 451.174 381.762C491.931 388.948 498.953 382.359 506.416 375.355C506.809 374.987 507.203 374.617 507.604 374.248C513.137 369.249 515.416 362.514 516.415 356.908C516.589 355.81 516.839 354.819 517.11 353.752L517.178 353.481L525.714 320.077C525.851 320.136 525.985 320.188 526.117 320.232L576.324 262.905C581.049 257.51 580.505 249.356 574.832 244.969C558.228 232.127 524.775 209.17 503.48 214.173C496.217 210.239 487.977 207.347 478.922 205.852L472.79 204.881C462.337 203.161 453.165 202.254 445.202 202.479Z" fill="#A339FF"/>
<path id="Skin" fill-rule="evenodd" clip-rule="evenodd" d="M201 100.641C194.056 100.58 196.989 110.048 201.918 114.939C204.254 117.256 206.811 119.921 209.163 122.65C193.285 118.776 170.166 113.562 161.687 114.021C148.35 114.742 151.657 125.388 151.657 125.388C151.657 125.388 174.969 134.713 185.642 143.892C191.275 148.737 202.829 153.321 212.483 156.57C230.286 194.089 262.887 258.642 296.669 304.584C305.927 317.174 358.95 303.603 391.641 293.733C391.534 293.607 391.431 293.476 391.333 293.341L344.065 228.122C343.919 227.92 343.779 227.716 343.646 227.509L329.436 230.875L269.044 131.264C266.429 126.951 261.697 124.378 256.655 124.528L245.822 124.851C235.768 118.264 212.946 103.555 204.762 101.238C203.327 100.832 202.081 100.65 201 100.641ZM471.299 170.77C469.575 170.257 467.439 169.322 465.479 167.588C462.03 164.432 459.874 159.228 461.31 153.748C462.587 148.687 467.666 143.141 472.482 143.037C475.188 142.954 481.903 143.037 481.903 143.037L479.724 117.525C479.656 115.923 480.813 114.495 482.404 114.327C483.388 114.252 484.361 114.222 485.332 114.193C487.905 114.115 490.459 114.037 493.135 113.099C493.334 113.078 493.53 113.032 493.726 112.987C493.923 112.941 494.119 112.895 494.318 112.874L494.489 112.836C498.248 111.983 516.478 107.85 527.978 120.296C528.988 121.296 529.93 122.605 530.882 124.013C533.138 127.295 534.352 131.19 534.571 135.189L535.646 153.074C535.644 153.525 535.647 153.975 535.651 154.425L535.651 154.431C535.661 155.788 535.672 157.144 535.515 158.518C533.449 180.957 525.302 197.197 517.01 198.672C516.026 198.876 510.666 199.54 504.223 198.508C504.183 198.499 504.148 198.492 504.114 198.485C504.076 198.478 504.041 198.471 504.003 198.465C503.642 198.399 503.123 198.305 498.536 197.004L497.879 209.206C497.796 210.742 497.128 212.195 495.823 213.009C493.151 214.677 487.738 217.14 479.811 216.427C472.001 215.724 467.246 212.433 464.944 210.318C463.758 209.227 463.318 207.618 463.431 206.01L465.53 176.349C465.758 173.136 468.386 170.879 471.299 170.77ZM530.328 315.558L576.212 263.198C576.299 263.099 576.384 262.999 576.468 262.897C577.538 261.598 578.315 260.153 578.804 258.643L605.617 275.397C618.838 264.181 643.757 245.614 680.375 219.695C682.685 203.574 684.913 187.674 687.059 171.994C689.21 156.279 693.891 137.838 701.102 116.673C706.694 114.482 711.165 117.512 714.514 125.762C716.102 129.673 717.633 136.416 718.989 143.83C719.681 143.27 720.495 142.854 721.39 142.628C724.735 141.782 728.133 143.808 728.978 147.153C731.252 156.146 726.549 175.84 725.076 182.011C725.014 182.271 724.957 182.507 724.908 182.717C729.445 202.731 730.552 222.323 724.946 229.075L725.073 229.105C684.719 297.862 653.067 338.519 630.115 351.078C610.316 361.911 577.054 350.071 530.328 315.558ZM670.314 837.249C668.742 837.437 667.142 837.534 665.521 837.534H605.318C601.754 837.534 598.294 837.066 594.998 836.188V874.635H670.267L670.314 874.668V837.249ZM362.782 839.794L359.391 874.635H434.267C434.267 874.635 434.359 874.699 434.528 874.819L439.066 837.996C435.989 838.79 432.772 839.229 429.465 839.268L367.528 840.013C365.922 840.032 364.338 839.958 362.782 839.794Z" fill="#DB9E75"/>
<path id="Eyes" fill-rule="evenodd" clip-rule="evenodd" d="M530.594 154.09C529.403 154.237 528.52 155.252 528.468 156.467C528.477 158.179 528.52 160.994 529.659 162.064C531.169 163.692 533.685 158.748 532.6 155.657C532.132 154.304 531.388 153.993 530.594 154.09ZM512.854 155.664C511.663 155.81 510.78 156.825 510.727 158.041C510.637 159.765 510.78 162.568 511.918 163.637C513.428 165.266 515.944 160.322 514.86 157.231C514.391 155.878 513.648 155.567 512.854 155.664Z" fill="#482D1F"/>
<path id="Mouth" d="M517.928 177.54C517.204 177.464 515.426 177.168 514.939 176.137C514.905 175.94 514.754 175.662 514.818 175.448C515.108 174.788 516.44 174.857 518.247 174.742C521.451 174.481 523.959 173.734 523.959 173.734C523.959 173.734 523.519 175.843 523.113 176.422C522.406 178.172 519.064 177.644 517.928 177.54Z" fill="#482D1F"/>
<path id="Hair" fill-rule="evenodd" clip-rule="evenodd" d="M464.683 181.55C464.683 181.55 467.695 182.757 471.975 176.901C473.2 175.225 473.756 173.082 473.983 170.981C472.163 170.681 468.988 169.877 466.284 167.32C462.935 164.153 460.79 159.049 462.245 153.768C463.523 148.707 468.099 144.405 472.914 144.301C475.501 144.222 477.666 145.38 478.131 145.629L478.185 145.658C480.922 147.312 482.575 149.5 483.186 150.41C511.609 148.981 529.264 122.693 529.264 122.693C520.437 108.868 498.421 111.455 495.081 112.208C494.946 112.223 493.587 112.447 491.727 112.754C488.123 113.349 482.638 114.254 480.545 114.541C475.899 115.122 472.108 115.394 468.873 115.626L468.873 115.626C461.605 116.147 457.147 116.467 452.123 119.639C450.803 120.482 447.699 122.518 445.181 126.302C438.171 136.481 440.796 148.663 441.692 152.821C441.722 152.958 441.749 153.086 441.774 153.205C444.557 164.375 448.709 168.781 451.378 171.215C460.735 179.884 464.683 181.55 464.683 181.55ZM535.252 147.828C536.202 147.457 536.388 146.206 535.577 145.638C534.551 145.007 532.901 144.282 530.914 144.531C526.841 145.046 522.826 148.191 527.402 148.806C530.334 149.304 533.433 148.453 535.252 147.828ZM515.957 149.848C516.907 149.477 517.093 148.226 516.183 147.676C515.158 147.044 513.507 146.32 511.422 146.586C507.349 147.101 503.352 150.344 507.911 150.861C510.94 151.342 514.04 150.491 515.957 149.848Z" fill="#482D1F"/>
<path id="Nose" d="M525.96 168.165L525.982 168.274C526.134 169.355 525.535 170.463 524.482 170.794C524.287 170.841 524.178 170.864 524.068 170.887C523.03 171.102 522.28 171.218 519.582 171.597C519.035 171.674 518.53 171.293 518.453 170.746C518.376 170.199 518.757 169.694 519.304 169.617C521.954 169.244 522.683 169.132 523.662 168.929C523.764 168.908 523.865 168.886 523.968 168.863C523.945 168.867 524.012 168.74 524.005 168.592L521.346 158.233L521.32 158.09L520.697 152.22C520.638 151.671 521.036 151.178 521.586 151.12C522.135 151.062 522.627 151.46 522.686 152.009L523.301 157.807L525.96 168.165Z" fill="#482D1F"/>
<path id="Shadow" d="M497.954 207.289L484.984 191.779L498.549 196.997L497.954 207.289Z" fill="#482D1F"/>
<path id="Shadow Arm" opacity="0.2" fill-rule="evenodd" clip-rule="evenodd" d="M201.768 115.594C195.387 109.213 195.644 99.1441 204.327 101.603C212.513 103.921 235.351 118.641 245.399 125.224L256.465 125.029C261.447 124.941 266.1 127.507 268.683 131.768L329 231.24L343.263 227.892C343.263 227.892 358.808 249.475 366.954 260.695C375.099 271.915 391.462 294.286 391.462 294.286C391.462 294.286 328.379 314.401 306.413 310.26C300.776 309.198 297.011 306.365 295.049 303.424C292.153 299.084 289.471 295.135 286.863 291.294L286.861 291.292C276.567 276.137 267.42 262.668 250.807 233.501C240.482 215.375 225.008 182.164 213.819 157.44C203.768 154.171 191.138 149.358 185.207 144.257C174.533 135.078 151.258 125.523 151.258 125.523C151.258 125.523 148.351 115.107 161.687 114.386C170.056 113.933 192.688 119.007 208.542 122.864C206.436 120.394 204.073 117.9 201.768 115.594Z" fill="#8C2A00"/>
<path id="Shadow_2" fill-rule="evenodd" clip-rule="evenodd" d="M245.821 127.023C234.298 127.023 221.886 125.993 208.581 123.934C207.763 123.807 207.202 123.041 207.328 122.222C207.455 121.403 208.221 120.842 209.04 120.969C222.198 123.005 234.459 124.023 245.821 124.023C246.649 124.023 247.321 124.694 247.321 125.523C247.321 126.351 246.649 127.023 245.821 127.023ZM707.975 175.649C709.728 169.637 712.548 159.412 716.432 144.982C716.647 144.182 717.471 143.708 718.27 143.924C719.07 144.139 719.544 144.962 719.329 145.762C715.44 160.211 712.616 170.451 710.855 176.489C710.783 176.737 710.708 176.991 710.631 177.251C710.563 177.478 710.36 178.145 710.101 178.991C709.551 180.79 708.753 183.404 708.484 184.343C707.759 186.871 707.313 188.827 707.092 190.581C706.701 193.686 707.053 196.048 708.266 197.956C708.711 198.655 708.504 199.582 707.805 200.027C707.106 200.471 706.179 200.265 705.734 199.566C704.098 196.992 703.645 193.947 704.116 190.206C704.359 188.272 704.837 186.18 705.6 183.517C705.879 182.545 706.695 179.872 707.245 178.072C707.496 177.25 707.691 176.611 707.755 176.396C707.831 176.141 707.904 175.892 707.975 175.649Z" fill="#482D1F"/>
<path id="Shadow_3" fill-rule="evenodd" clip-rule="evenodd" d="M449.023 204.447C451.674 216.979 459.427 224.698 472.076 227.406C481.015 229.32 487.404 229.095 492.5 226.821C496.733 224.932 499.678 222.082 504.189 216.215C504.694 215.559 504.571 214.617 503.915 214.112C503.258 213.607 502.316 213.73 501.811 214.386C497.582 219.886 494.933 222.45 491.277 224.081C486.84 226.061 481.073 226.265 472.704 224.473C461.209 222.011 454.363 215.195 451.959 203.826C451.787 203.016 450.991 202.498 450.181 202.669C449.37 202.84 448.852 203.636 449.023 204.447ZM394.2 295.518C415.457 280.72 430.717 269.861 439.986 262.935C440.649 262.439 440.786 261.499 440.29 260.836C439.794 260.172 438.854 260.036 438.19 260.532C428.954 267.433 413.717 278.276 392.486 293.055C391.806 293.529 391.639 294.464 392.112 295.143C392.585 295.823 393.52 295.991 394.2 295.518ZM537.71 268.023L527.005 319.195C526.836 320.006 526.041 320.526 525.23 320.356C524.419 320.187 523.899 319.392 524.069 318.581L534.774 267.409C534.943 266.598 535.738 266.078 536.549 266.248C537.36 266.417 537.88 267.212 537.71 268.023Z" fill="#482D1F"/>
</g>
</g>
</svg>
